<?xml version="1.0" encoding="UTF-8" standalone="no"?>
<!-- Created with Inkscape (http://www.inkscape.org/) -->

<svg
   width="512"
   height="512"
   viewBox="0 0 512 512"
   version="1.1"
   id="svg1"
   xml:space="preserve"
   inkscape:export-filename="bitmap.svg"
   inkscape:export-xdpi="96"
   inkscape:export-ydpi="96"
   xmlns:inkscape="http://www.inkscape.org/namespaces/inkscape"
   xmlns:sodipodi="http://sodipodi.sourceforge.net/DTD/sodipodi-0.dtd"
   xmlns="http://www.w3.org/2000/svg"
   xmlns:svg="http://www.w3.org/2000/svg"><sodipodi:namedview
     id="namedview1"
     pagecolor="#ffffff"
     bordercolor="#000000"
     borderopacity="0.25"
     inkscape:showpageshadow="2"
     inkscape:pageopacity="0.0"
     inkscape:pagecheckerboard="0"
     inkscape:deskcolor="#d1d1d1"
     inkscape:document-units="px"
     showguides="true"><sodipodi:guide
       position="256,-60.936611"
       orientation="-1,0"
       id="guide1"
       inkscape:locked="false"
       inkscape:label=""
       inkscape:color="rgb(0,134,229)" /><sodipodi:guide
       position="355.68435,256"
       orientation="0,1"
       id="guide2"
       inkscape:locked="false"
       inkscape:label=""
       inkscape:color="rgb(0,134,229)" /><inkscape:page
       x="0"
       y="0"
       width="512"
       height="512"
       id="page2"
       margin="0"
       bleed="0" /></sodipodi:namedview><defs
     id="defs1" /><g
     inkscape:label="Camada 1"
     inkscape:groupmode="layer"
     id="layer1"><g
       style="fill:#000000"
       id="g1"
       transform="matrix(6.6448421,0,0,6.3778601,-75.092589,-69.67558)"><g
         id="g3">
	<path
   d="m 34.848,40.708 c 0,-5.6 -4.542,-10.141 -10.143,-10.141 -5.601,0 -10.141,4.541 -10.141,10.141 0,5.604 4.539,10.143 10.141,10.143 5.602,0 10.143,-4.539 10.143,-10.143 z"
   id="path1" />
	<path
   d="m 75.293,32.548 c -5.6,0 -10.141,4.541 -10.141,10.141 0,5.604 4.541,10.141 10.141,10.141 5.601,0 10.142,-4.537 10.142,-10.141 0,-5.6 -4.54,-10.141 -10.142,-10.141 z"
   id="path2" />
	<path
   d="M 66.082,53.978 C 65.377,53.109 64.379,52.103 63.233,51.048 60.175,47.085 55.392,44.521 50,44.521 c -4.799,0 -9.113,2.032 -12.162,5.27 -1.732,1.507 -3.272,2.978 -4.252,4.188 L 32.93,54.78 c -3.06,3.731 -6.869,8.373 -6.841,16.25 0.027,7.315 5.984,13.27 13.278,13.27 4.166,0 7.984,-1.926 10.467,-5.159 2.481,3.233 6.3,5.159 10.47,5.159 7.291,0 13.247,-5.954 13.275,-13.27 0.028,-7.877 -3.782,-12.519 -6.841,-16.25 z"
   id="path3" />
	<circle
   cx="50.702999"
   cy="26.877001"
   r="11.175"
   id="circle3" />
</g></g></g></svg>
